<svg width="140" height="140" viewBox="0 0 140 140" fill="none" xmlns="http://www.w3.org/2000/svg">
<rect x="0.5" y="0.5" width="139" height="139" rx="69.5" stroke="black"/>
<rect x="1" y="1" width="138" height="138" rx="69" fill="black"/>
<path d="M40.4619 62.4893L43.3945 54.0469H44.8232L41.1387 64H40.1201L40.4619 62.4893ZM37.7207 54.0469L40.626 62.4893L40.9883 64H39.9697L36.292 54.0469H37.7207ZM48.5781 54.0469V64H47.2588V54.0469H48.5781ZM58.3008 62.9268V64H53.0303V62.9268H58.3008ZM53.2969 54.0469V64H51.9775V54.0469H53.2969ZM57.6035 58.3262V59.3994H53.0303V58.3262H57.6035ZM58.2324 54.0469V55.127H53.0303V54.0469H58.2324ZM63.5527 60.9922L65.5283 54.0469H66.4854L65.9316 56.7471L63.8057 64H62.8555L63.5527 60.9922ZM61.5088 54.0469L63.0811 60.8555L63.5527 64H62.6094L60.1963 54.0469H61.5088ZM69.042 60.8486L70.5801 54.0469H71.8994L69.4932 64H68.5498L69.042 60.8486ZM66.6289 54.0469L68.5498 60.9922L69.2471 64H68.2969L66.2461 56.7471L65.6855 54.0469H66.6289ZM82.5195 54.9287L79.2246 64H77.8779L81.6719 54.0469H82.54L82.5195 54.9287ZM85.2812 64L81.9795 54.9287L81.959 54.0469H82.8271L86.6348 64H85.2812ZM85.1104 60.3154V61.3955H79.5186V60.3154H85.1104ZM95.0039 62.9268V64H90.0273V62.9268H95.0039ZM90.2871 54.0469V64H88.9678V54.0469H90.2871ZM103.551 62.9268V64H98.5742V62.9268H103.551ZM98.834 54.0469V64H97.5146V54.0469H98.834Z" fill="white"/>
<path d="M56.2578 80.0967H53.5986V79.0234H56.2578C56.7728 79.0234 57.1898 78.9414 57.5088 78.7773C57.8278 78.6133 58.0602 78.3854 58.2061 78.0938C58.3564 77.8021 58.4316 77.4694 58.4316 77.0957C58.4316 76.7539 58.3564 76.4326 58.2061 76.1318C58.0602 75.8311 57.8278 75.5895 57.5088 75.4072C57.1898 75.2204 56.7728 75.127 56.2578 75.127H53.9062V84H52.5869V74.0469H56.2578C57.0098 74.0469 57.6455 74.1768 58.165 74.4365C58.6846 74.6963 59.0788 75.0563 59.3477 75.5166C59.6165 75.9723 59.751 76.4941 59.751 77.082C59.751 77.7201 59.6165 78.2646 59.3477 78.7158C59.0788 79.167 58.6846 79.5111 58.165 79.748C57.6455 79.9805 57.0098 80.0967 56.2578 80.0967ZM70.082 78.709V79.3379C70.082 80.0853 69.9886 80.7552 69.8018 81.3477C69.6149 81.9401 69.346 82.4437 68.9951 82.8584C68.6442 83.2731 68.2227 83.5898 67.7305 83.8086C67.2428 84.0273 66.696 84.1367 66.0898 84.1367C65.502 84.1367 64.9619 84.0273 64.4697 83.8086C63.9821 83.5898 63.5583 83.2731 63.1982 82.8584C62.8428 82.4437 62.5671 81.9401 62.3711 81.3477C62.1751 80.7552 62.0771 80.0853 62.0771 79.3379V78.709C62.0771 77.9616 62.1729 77.2939 62.3643 76.7061C62.5602 76.1136 62.8359 75.61 63.1914 75.1953C63.5469 74.776 63.9684 74.457 64.4561 74.2383C64.9482 74.0195 65.4883 73.9102 66.0762 73.9102C66.6823 73.9102 67.2292 74.0195 67.7168 74.2383C68.209 74.457 68.6305 74.776 68.9814 75.1953C69.3369 75.61 69.6081 76.1136 69.7949 76.7061C69.9863 77.2939 70.082 77.9616 70.082 78.709ZM68.7764 79.3379V78.6953C68.7764 78.1029 68.7148 77.5788 68.5918 77.123C68.4733 76.6673 68.2979 76.2845 68.0654 75.9746C67.833 75.6647 67.5482 75.43 67.2109 75.2705C66.8783 75.111 66.5 75.0312 66.0762 75.0312C65.666 75.0312 65.2946 75.111 64.9619 75.2705C64.6338 75.43 64.3512 75.6647 64.1143 75.9746C63.8818 76.2845 63.7018 76.6673 63.5742 77.123C63.4466 77.5788 63.3828 78.1029 63.3828 78.6953V79.3379C63.3828 79.9349 63.4466 80.4635 63.5742 80.9238C63.7018 81.3796 63.8841 81.7646 64.1211 82.0791C64.3626 82.389 64.6475 82.6237 64.9756 82.7832C65.3083 82.9427 65.6797 83.0225 66.0898 83.0225C66.5182 83.0225 66.8988 82.9427 67.2314 82.7832C67.5641 82.6237 67.8444 82.389 68.0723 82.0791C68.3047 81.7646 68.4801 81.3796 68.5986 80.9238C68.7171 80.4635 68.7764 79.9349 68.7764 79.3379ZM78.3623 81.4844C78.3623 81.252 78.3258 81.0469 78.2529 80.8691C78.1846 80.6868 78.0615 80.5228 77.8838 80.377C77.7106 80.2311 77.4691 80.0921 77.1592 79.96C76.8538 79.8278 76.4665 79.6934 75.9971 79.5566C75.5049 79.4108 75.0605 79.249 74.6641 79.0713C74.2676 78.889 73.9281 78.6816 73.6455 78.4492C73.363 78.2168 73.1465 77.9502 72.9961 77.6494C72.8457 77.3486 72.7705 77.0046 72.7705 76.6172C72.7705 76.2298 72.8503 75.8721 73.0098 75.5439C73.1693 75.2158 73.3971 74.931 73.6934 74.6895C73.9941 74.4434 74.3519 74.252 74.7666 74.1152C75.1813 73.9785 75.6439 73.9102 76.1543 73.9102C76.9017 73.9102 77.5352 74.0537 78.0547 74.3408C78.5788 74.6234 78.9775 74.9948 79.251 75.4551C79.5244 75.9108 79.6611 76.3984 79.6611 76.918H78.3486C78.3486 76.5443 78.2689 76.2139 78.1094 75.9268C77.9499 75.6351 77.7083 75.4072 77.3848 75.2432C77.0612 75.0745 76.651 74.9902 76.1543 74.9902C75.6849 74.9902 75.2975 75.0609 74.9922 75.2021C74.6868 75.3434 74.459 75.5348 74.3086 75.7764C74.1628 76.0179 74.0898 76.2936 74.0898 76.6035C74.0898 76.8132 74.1331 77.0046 74.2197 77.1777C74.3109 77.3464 74.4499 77.5036 74.6367 77.6494C74.8281 77.7952 75.0697 77.9297 75.3613 78.0527C75.6576 78.1758 76.0107 78.2943 76.4209 78.4082C76.986 78.5677 77.4736 78.7454 77.8838 78.9414C78.2939 79.1374 78.6312 79.3584 78.8955 79.6045C79.1644 79.846 79.3626 80.1217 79.4902 80.4316C79.6224 80.737 79.6885 81.0833 79.6885 81.4707C79.6885 81.8763 79.6064 82.2432 79.4424 82.5713C79.2783 82.8994 79.0436 83.1797 78.7383 83.4121C78.4329 83.6445 78.0661 83.8245 77.6377 83.9521C77.2139 84.0752 76.7399 84.1367 76.2158 84.1367C75.7555 84.1367 75.3021 84.0729 74.8555 83.9453C74.4134 83.8177 74.0101 83.6263 73.6455 83.3711C73.2855 83.1159 72.9961 82.8014 72.7773 82.4277C72.5632 82.0495 72.4561 81.612 72.4561 81.1152H73.7686C73.7686 81.457 73.8346 81.751 73.9668 81.9971C74.099 82.2386 74.279 82.4391 74.5068 82.5986C74.7393 82.7581 75.0013 82.8766 75.293 82.9541C75.5892 83.027 75.8968 83.0635 76.2158 83.0635C76.6761 83.0635 77.0658 82.9997 77.3848 82.8721C77.7038 82.7445 77.9453 82.5622 78.1094 82.3252C78.278 82.0882 78.3623 81.8079 78.3623 81.4844ZM86.0479 74.0469V84H84.749V74.0469H86.0479ZM89.2471 74.0469V75.127H81.5566V74.0469H89.2471Z" fill="white"/>
</svg>
