<svg width="148" height="140" viewBox="0 0 148 140" fill="none" xmlns="http://www.w3.org/2000/svg">
<rect x="8.5" y="0.5" width="139" height="139" rx="69.5" stroke="white"/>
<rect x="9" y="1" width="138" height="138" rx="69" fill="white"/>
<path d="M51.2588 63.4893L54.1914 55.0469H55.6201L51.9355 65H50.917L51.2588 63.4893ZM48.5176 55.0469L51.4229 63.4893L51.7852 65H50.7666L47.0889 55.0469H48.5176ZM59.375 55.0469V65H58.0557V55.0469H59.375ZM69.0977 63.9268V65H63.8271V63.9268H69.0977ZM64.0938 55.0469V65H62.7744V55.0469H64.0938ZM68.4004 59.3262V60.3994H63.8271V59.3262H68.4004ZM69.0293 55.0469V56.127H63.8271V55.0469H69.0293ZM74.3496 61.9922L76.3252 55.0469H77.2822L76.7285 57.7471L74.6025 65H73.6523L74.3496 61.9922ZM72.3057 55.0469L73.8779 61.8555L74.3496 65H73.4062L70.9932 55.0469H72.3057ZM79.8389 61.8486L81.377 55.0469H82.6963L80.29 65H79.3467L79.8389 61.8486ZM77.4258 55.0469L79.3467 61.9922L80.0439 65H79.0938L77.043 57.7471L76.4824 55.0469H77.4258ZM97.2949 59.709V60.3379C97.2949 61.0853 97.2015 61.7552 97.0146 62.3477C96.8278 62.9401 96.5589 63.4437 96.208 63.8584C95.8571 64.2731 95.4355 64.5898 94.9434 64.8086C94.4557 65.0273 93.9089 65.1367 93.3027 65.1367C92.7148 65.1367 92.1748 65.0273 91.6826 64.8086C91.195 64.5898 90.7712 64.2731 90.4111 63.8584C90.0557 63.4437 89.7799 62.9401 89.584 62.3477C89.388 61.7552 89.29 61.0853 89.29 60.3379V59.709C89.29 58.9616 89.3857 58.2939 89.5771 57.7061C89.7731 57.1136 90.0488 56.61 90.4043 56.1953C90.7598 55.776 91.1813 55.457 91.6689 55.2383C92.1611 55.0195 92.7012 54.9102 93.2891 54.9102C93.8952 54.9102 94.4421 55.0195 94.9297 55.2383C95.4219 55.457 95.8434 55.776 96.1943 56.1953C96.5498 56.61 96.821 57.1136 97.0078 57.7061C97.1992 58.2939 97.2949 58.9616 97.2949 59.709ZM95.9893 60.3379V59.6953C95.9893 59.1029 95.9277 58.5788 95.8047 58.123C95.6862 57.6673 95.5107 57.2845 95.2783 56.9746C95.0459 56.6647 94.7611 56.43 94.4238 56.2705C94.0911 56.111 93.7129 56.0312 93.2891 56.0312C92.8789 56.0312 92.5075 56.111 92.1748 56.2705C91.8467 56.43 91.5641 56.6647 91.3271 56.9746C91.0947 57.2845 90.9147 57.6673 90.7871 58.123C90.6595 58.5788 90.5957 59.1029 90.5957 59.6953V60.3379C90.5957 60.9349 90.6595 61.4635 90.7871 61.9238C90.9147 62.3796 91.097 62.7646 91.334 63.0791C91.5755 63.389 91.8604 63.6237 92.1885 63.7832C92.5212 63.9427 92.8926 64.0225 93.3027 64.0225C93.7311 64.0225 94.1117 63.9427 94.4443 63.7832C94.777 63.6237 95.0573 63.389 95.2852 63.0791C95.5176 62.7646 95.693 62.3796 95.8115 61.9238C95.93 61.4635 95.9893 60.9349 95.9893 60.3379ZM107.927 55.0469V65H106.601L101.59 57.3232V65H100.271V55.0469H101.59L106.621 62.7441V55.0469H107.927Z" fill="black"/>
<path d="M45.6523 85H43.5742L43.5879 83.9268H45.6523C46.3633 83.9268 46.9557 83.7786 47.4297 83.4824C47.9036 83.1816 48.2591 82.7624 48.4961 82.2246C48.7376 81.6823 48.8584 81.0488 48.8584 80.3242V79.7158C48.8584 79.1462 48.79 78.6403 48.6533 78.1982C48.5166 77.7516 48.3161 77.3757 48.0518 77.0703C47.7874 76.7604 47.4639 76.5257 47.0811 76.3662C46.7028 76.2067 46.2676 76.127 45.7754 76.127H43.5332V75.0469H45.7754C46.4271 75.0469 47.0218 75.1562 47.5596 75.375C48.0973 75.5892 48.5599 75.9014 48.9473 76.3115C49.3392 76.7171 49.64 77.2093 49.8496 77.7881C50.0592 78.3623 50.1641 79.0094 50.1641 79.7295V80.3242C50.1641 81.0443 50.0592 81.6937 49.8496 82.2725C49.64 82.8467 49.3369 83.3366 48.9404 83.7422C48.5485 84.1478 48.0745 84.46 47.5186 84.6787C46.9671 84.8929 46.3451 85 45.6523 85ZM44.2783 75.0469V85H42.959V75.0469H44.2783ZM59.4697 83.9268V85H54.1992V83.9268H59.4697ZM54.4658 75.0469V85H53.1465V75.0469H54.4658ZM58.7725 79.3262V80.3994H54.1992V79.3262H58.7725ZM59.4014 75.0469V76.127H54.1992V75.0469H59.4014ZM67.4082 82.4844C67.4082 82.252 67.3717 82.0469 67.2988 81.8691C67.2305 81.6868 67.1074 81.5228 66.9297 81.377C66.7565 81.2311 66.515 81.0921 66.2051 80.96C65.8997 80.8278 65.5124 80.6934 65.043 80.5566C64.5508 80.4108 64.1064 80.249 63.71 80.0713C63.3135 79.889 62.974 79.6816 62.6914 79.4492C62.4089 79.2168 62.1924 78.9502 62.042 78.6494C61.8916 78.3486 61.8164 78.0046 61.8164 77.6172C61.8164 77.2298 61.8962 76.8721 62.0557 76.5439C62.2152 76.2158 62.443 75.931 62.7393 75.6895C63.04 75.4434 63.3978 75.252 63.8125 75.1152C64.2272 74.9785 64.6898 74.9102 65.2002 74.9102C65.9476 74.9102 66.5811 75.0537 67.1006 75.3408C67.6247 75.6234 68.0234 75.9948 68.2969 76.4551C68.5703 76.9108 68.707 77.3984 68.707 77.918H67.3945C67.3945 77.5443 67.3148 77.2139 67.1553 76.9268C66.9958 76.6351 66.7542 76.4072 66.4307 76.2432C66.1071 76.0745 65.6969 75.9902 65.2002 75.9902C64.7308 75.9902 64.3434 76.0609 64.0381 76.2021C63.7327 76.3434 63.5049 76.5348 63.3545 76.7764C63.2087 77.0179 63.1357 77.2936 63.1357 77.6035C63.1357 77.8132 63.179 78.0046 63.2656 78.1777C63.3568 78.3464 63.4958 78.5036 63.6826 78.6494C63.874 78.7952 64.1156 78.9297 64.4072 79.0527C64.7035 79.1758 65.0566 79.2943 65.4668 79.4082C66.0319 79.5677 66.5195 79.7454 66.9297 79.9414C67.3398 80.1374 67.6771 80.3584 67.9414 80.6045C68.2103 80.846 68.4085 81.1217 68.5361 81.4316C68.6683 81.737 68.7344 82.0833 68.7344 82.4707C68.7344 82.8763 68.6523 83.2432 68.4883 83.5713C68.3242 83.8994 68.0895 84.1797 67.7842 84.4121C67.4788 84.6445 67.112 84.8245 66.6836 84.9521C66.2598 85.0752 65.7858 85.1367 65.2617 85.1367C64.8014 85.1367 64.348 85.0729 63.9014 84.9453C63.4593 84.8177 63.056 84.6263 62.6914 84.3711C62.3314 84.1159 62.042 83.8014 61.8232 83.4277C61.609 83.0495 61.502 82.612 61.502 82.1152H62.8145C62.8145 82.457 62.8805 82.751 63.0127 82.9971C63.1449 83.2386 63.3249 83.4391 63.5527 83.5986C63.7852 83.7581 64.0472 83.8766 64.3389 83.9541C64.6351 84.027 64.9427 84.0635 65.2617 84.0635C65.722 84.0635 66.1117 83.9997 66.4307 83.8721C66.7497 83.7445 66.9912 83.5622 67.1553 83.3252C67.3239 83.0882 67.4082 82.8079 67.4082 82.4844ZM72.8311 75.0469V85H71.5117V75.0469H72.8311ZM83.5859 80.0439V83.6875C83.4629 83.8698 83.2669 84.0749 82.998 84.3027C82.7292 84.526 82.3577 84.722 81.8838 84.8906C81.4144 85.0547 80.8083 85.1367 80.0654 85.1367C79.4593 85.1367 78.901 85.0319 78.3906 84.8223C77.8848 84.6081 77.445 84.2982 77.0713 83.8926C76.7021 83.4824 76.415 82.9857 76.21 82.4023C76.0094 81.8145 75.9092 81.1491 75.9092 80.4062V79.6338C75.9092 78.891 75.9958 78.2279 76.1689 77.6445C76.3467 77.0612 76.6064 76.5667 76.9482 76.1611C77.29 75.751 77.7093 75.4411 78.2061 75.2314C78.7028 75.0173 79.2725 74.9102 79.915 74.9102C80.6761 74.9102 81.3118 75.0423 81.8223 75.3066C82.3372 75.5664 82.7383 75.9264 83.0254 76.3867C83.3171 76.847 83.5039 77.3711 83.5859 77.959H82.2666C82.2074 77.599 82.0889 77.2708 81.9111 76.9746C81.738 76.6784 81.4896 76.4414 81.166 76.2637C80.8424 76.0814 80.4255 75.9902 79.915 75.9902C79.4548 75.9902 79.056 76.0745 78.7188 76.2432C78.3815 76.4118 78.1035 76.6533 77.8848 76.9678C77.666 77.2822 77.502 77.6628 77.3926 78.1094C77.2878 78.556 77.2354 79.0596 77.2354 79.6201V80.4062C77.2354 80.9805 77.3014 81.4932 77.4336 81.9443C77.5703 82.3955 77.764 82.7806 78.0146 83.0996C78.2653 83.4141 78.5638 83.6533 78.9102 83.8174C79.2611 83.9814 79.6484 84.0635 80.0723 84.0635C80.5417 84.0635 80.9222 84.0247 81.2139 83.9473C81.5055 83.8652 81.7334 83.7695 81.8975 83.6602C82.0615 83.5462 82.1868 83.4391 82.2734 83.3389V81.1104H79.9697V80.0439H83.5859ZM94.4297 75.0469V85H93.1035L88.0928 77.3232V85H86.7734V75.0469H88.0928L93.124 82.7441V75.0469H94.4297ZM104.091 83.9268V85H98.8203V83.9268H104.091ZM99.0869 75.0469V85H97.7676V75.0469H99.0869ZM103.394 79.3262V80.3994H98.8203V79.3262H103.394ZM104.022 75.0469V76.127H98.8203V75.0469H104.022ZM106.725 75.0469H110.02C110.767 75.0469 111.398 75.1608 111.913 75.3887C112.433 75.6165 112.827 75.9538 113.096 76.4004C113.369 76.8424 113.506 77.387 113.506 78.0342C113.506 78.4899 113.412 78.9069 113.226 79.2852C113.043 79.6589 112.779 79.9779 112.433 80.2422C112.091 80.502 111.681 80.6956 111.202 80.8232L110.833 80.9668H107.736L107.723 79.8936H110.061C110.535 79.8936 110.929 79.8115 111.243 79.6475C111.558 79.4788 111.795 79.2533 111.954 78.9707C112.114 78.6882 112.193 78.376 112.193 78.0342C112.193 77.6514 112.118 77.3164 111.968 77.0293C111.817 76.7422 111.58 76.5212 111.257 76.3662C110.938 76.2067 110.525 76.127 110.02 76.127H108.044V85H106.725V75.0469ZM112.542 85L110.122 80.4883L111.496 80.4814L113.95 84.918V85H112.542Z" fill="black"/>
</svg>
